<?xml version="1.0" encoding="UTF-8" standalone="no"?>
<!-- Created with Inkscape (http://www.inkscape.org/) -->

<svg
   xmlns:dc="http://purl.org/dc/elements/1.1/"
   xmlns:cc="http://creativecommons.org/ns#"
   xmlns:rdf="http://www.w3.org/1999/02/22-rdf-syntax-ns#"
   xmlns:svg="http://www.w3.org/2000/svg"
   xmlns="http://www.w3.org/2000/svg"
   xmlns:xlink="http://www.w3.org/1999/xlink"
   xmlns:sodipodi="http://sodipodi.sourceforge.net/DTD/sodipodi-0.dtd"
   xmlns:inkscape="http://www.inkscape.org/namespaces/inkscape"
   width="23"
   height="23"
   id="svg4341"
   version="1.1"
   inkscape:version="0.91 r13725"
   sodipodi:docname="start-here-white.svg">
  <defs
     id="defs4343">
    <linearGradient
       inkscape:collect="always"
       id="linearGradient4381">
      <stop
         style="stop-color:#ffffff;stop-opacity:1;"
         offset="0"
         id="stop4383" />
      <stop
         style="stop-color:#ffffff;stop-opacity:0;"
         offset="1"
         id="stop4385" />
    </linearGradient>
    <linearGradient
       inkscape:collect="always"
       xlink:href="#linearGradient4381"
       id="linearGradient4387"
       x1="12.625"
       y1="10.487181"
       x2="5"
       y2="-21.262819"
       gradientUnits="userSpaceOnUse" />
    <linearGradient
       inkscape:collect="always"
       xlink:href="#linearGradient4381"
       id="linearGradient4391"
       gradientUnits="userSpaceOnUse"
       x1="12.625"
       y1="10.487181"
       x2="5"
       y2="-21.262819" />
  </defs>
  <sodipodi:namedview
     id="base"
     pagecolor="#333333"
     bordercolor="#666666"
     borderopacity="1.0"
     inkscape:pageopacity="0"
     inkscape:pageshadow="2"
     inkscape:zoom="11.313709"
     inkscape:cx="-21.754274"
     inkscape:cy="9.7909035"
     inkscape:document-units="px"
     inkscape:current-layer="layer1"
     showgrid="true"
     inkscape:window-width="1366"
     inkscape:window-height="768"
     inkscape:window-x="90"
     inkscape:window-y="206"
     inkscape:window-maximized="0">
    <inkscape:grid
       type="xygrid"
       id="grid4412"
       empspacing="5"
       visible="true"
       enabled="true"
       snapvisiblegridlinesonly="true" />
  </sodipodi:namedview>
  <metadata
     id="metadata4346">
    <rdf:RDF>
      <cc:Work
         rdf:about="">
        <dc:format>image/svg+xml</dc:format>
        <dc:type
           rdf:resource="http://purl.org/dc/dcmitype/StillImage" />
        <dc:title />
      </cc:Work>
    </rdf:RDF>
  </metadata>
  <g
     inkscape:label="Layer 1"
     inkscape:groupmode="layer"
     id="layer1"
     transform="translate(0,-1029.3622)">
    <path
       id="path4361"
       d="m 15.991806,1042.0054 c 0.02516,2.711 2.378203,3.6131 2.404271,3.6246 -0.01989,0.064 -0.375975,1.2856 -1.239688,2.5479 -0.746639,1.0912 -1.521558,2.1785 -2.742277,2.201 -1.199481,0.022 -0.428792,-0.853 -2.956526,-0.8363 -2.5583272,0.017 -1.799461,0.8138 -2.9349036,0.8584 -1.1783048,0.045 -2.075572,-1.18 -2.8284187,-2.2673 -1.5383505,-2.2241 -2.7139682,-6.2846 -1.1354099,-9.0256 0.7841931,-1.3612 2.1856074,-2.2231 3.706717,-2.2452 1.1570662,-0.022 2.2491982,0.7784 2.9565262,0.7784 0.706881,0 2.034053,-0.9627 3.429262,-0.8213 0.584083,0.024 2.223609,0.2359 3.276396,1.7769 -0.08483,0.053 -1.956292,1.1421 -1.935949,3.4085 m -2.254282,-6.6568 c 0.625568,-0.7572 1.046614,-1.8114 0.931747,-2.8602 -0.901712,0.036 -1.992085,0.6009 -2.638862,1.3577 -0.579637,0.6702 -1.08727,1.7428 -0.950302,2.7709 1.005064,0.078 2.031815,-0.5107 2.657417,-1.2684"
       inkscape:connector-curvature="0"
       sodipodi:nodetypes="ccccsccccscccccccc"
       style="fill:#ffffff;fill-opacity:0.90196078" />
  </g>
</svg>
